<?xml version="1.0" standalone="no"?><!DOCTYPE svg PUBLIC "-//W3C//DTD SVG 1.1//EN" "http://www.w3.org/Graphics/SVG/1.1/DTD/svg11.dtd"><svg t="1724124466556" class="icon" viewBox="0 0 1024 1024" version="1.1" xmlns="http://www.w3.org/2000/svg" p-id="6256" xmlns:xlink="http://www.w3.org/1999/xlink" ><path d="M455.111111 904.533333H153.6c-5.688889 0-11.377778-5.688889-11.377778-11.377777V125.155556c0-5.688889 5.688889-11.377778 11.377778-11.377778h574.577778c5.688889 0 11.377778 5.688889 11.377778 11.377778v256c0 34.133333 22.755556 56.888889 56.888888 56.888888s56.888889-22.755556 56.888889-56.888888V125.155556C853.333333 56.888889 796.444444 0 728.177778 0H153.6C85.333333 0 28.444444 56.888889 28.444444 125.155556v768c0 68.266667 56.888889 125.155556 125.155556 125.155555H455.111111c34.133333 0 56.888889-22.755556 56.888889-56.888889s-22.755556-56.888889-56.888889-56.888889z" p-id="6257"></path><path d="M984.177778 955.733333L853.333333 807.822222c22.755556-34.133333 34.133333-68.266667 34.133334-113.777778 0-108.088889-85.333333-193.422222-193.422223-193.422222s-193.422222 85.333333-193.422222 193.422222 85.333333 193.422222 193.422222 193.422223c34.133333 0 68.266667-11.377778 96.711112-28.444445l130.844444 147.911111c5.688889 11.377778 22.755556 17.066667 34.133333 17.066667 11.377778 0 22.755556-5.688889 28.444445-11.377778 11.377778-17.066667 11.377778-39.822222 0-56.888889z m-403.911111-261.688889c0-62.577778 51.2-108.088889 108.088889-108.088888s108.088889 51.2 108.088888 108.088888-51.2 108.088889-108.088888 108.088889-108.088889-51.2-108.088889-108.088889zM614.4 284.444444c0-22.755556-17.066667-45.511111-45.511111-45.511111H244.622222c-22.755556 5.688889-39.822222 22.755556-39.822222 45.511111s17.066667 45.511111 45.511111 45.511112h329.955556c17.066667 0 34.133333-22.755556 34.133333-45.511112zM443.733333 472.177778c0-22.755556-17.066667-45.511111-45.511111-45.511111H244.622222c-22.755556 0-45.511111 17.066667-45.511111 45.511111s22.755556 39.822222 45.511111 39.822222H398.222222c28.444444 0 45.511111-17.066667 45.511111-39.822222zM244.622222 637.155556c-22.755556 0-45.511111 17.066667-45.511111 45.511111s17.066667 45.511111 45.511111 45.511111h85.333334c22.755556 0 45.511111-17.066667 45.511111-45.511111s-17.066667-45.511111-45.511111-45.511111H244.622222z"  p-id="6258"></path></svg>